<svg width="173" height="80" viewBox="0 0 173 80" fill="currentColor" xmlns="http://www.w3.org/2000/svg">
<path d="M23.4504 48.4155C22.6624 48.4155 21.8713 48.1276 21.2523 47.5458L21.0092 47.3174C19.7211 46.1067 19.6578 44.0735 20.8688 42.7849L23.0082 40.5093L20.8688 38.2338C19.6578 36.9452 19.7203 34.9119 21.0092 33.7012L21.2523 33.4728C22.5405 32.2621 24.5742 32.3246 25.7859 33.6133L29.3054 37.2021L28.5505 37.9421L25.0234 34.3455C24.2037 33.4736 22.84 33.4311 21.9763 34.2437L21.7332 34.4721C20.8695 35.2838 20.8271 36.6473 21.639 37.5108L24.4584 40.5093L21.639 43.5087C20.8271 44.3721 20.8695 45.7356 21.7332 46.5473L21.9763 46.7757C22.84 47.5875 24.2037 47.5458 25.0157 46.6816L29.9475 41.6529L30.7023 42.3929L25.779 47.4139C25.1523 48.0782 24.3025 48.4147 23.4504 48.4155Z" fill="currentColor"/>
<path d="M38.4655 54.3604C37.6466 54.3604 36.8709 54.0533 36.2712 53.49L33.9952 51.351L31.7191 53.49C31.0947 54.0764 30.2766 54.3843 29.4238 54.3588C28.5679 54.3326 27.7729 53.9738 27.1863 53.3503L26.9579 53.1073C25.7469 51.8186 25.8094 49.7854 27.0983 48.5747L32.1228 43.6501L32.8622 44.4048L27.83 49.3371C26.9579 50.1565 26.9162 51.52 27.7281 52.3835L27.9566 52.6265C28.3502 53.0448 28.8828 53.2855 29.457 53.3032C30.032 53.3202 30.5776 53.1142 30.996 52.7207L33.996 49.9019L36.996 52.7207C37.4143 53.1142 37.9592 53.3218 38.5349 53.3032C39.1092 53.2855 39.6417 53.0455 40.0353 52.6265L40.2638 52.3835C41.0757 51.52 41.0333 50.1565 40.1696 49.3448L37.3433 46.5746L38.0834 45.82L40.9021 48.5824C42.1825 49.7854 42.2458 51.8186 41.034 53.1073L40.8056 53.3503C40.219 53.9746 39.4241 54.3326 38.5681 54.3588C38.5334 54.3596 38.4994 54.3604 38.4655 54.3604Z" fill="currentColor"/>
<path d="M44.5488 48.4132C43.6936 48.4132 42.8416 48.0744 42.211 47.4046L35.4492 40.5094L42.2149 33.6094C43.4266 32.3254 45.4572 32.2637 46.7446 33.4729L46.9877 33.7013C47.6121 34.2877 47.9702 35.0825 47.9964 35.9382C48.0227 36.794 47.7147 37.6096 47.1274 38.2338L44.9887 40.5094L47.1274 42.7849C47.714 43.4091 48.0227 44.224 47.9964 45.0797C47.9702 45.9355 47.6113 46.7302 46.9877 47.3167L46.7446 47.5451C46.1264 48.1254 45.3368 48.4132 44.5488 48.4132ZM36.9295 40.5094L42.9735 46.6731C43.7932 47.5451 45.157 47.5868 46.0206 46.775L46.2637 46.5466C46.6821 46.1531 46.9229 45.6206 46.9406 45.0465C46.9584 44.4725 46.7515 43.9261 46.3579 43.5079L43.5385 40.5086L46.3579 37.51C47.1698 36.6466 47.1274 35.2831 46.2637 34.4713L46.0206 34.2429C45.1562 33.4312 43.7932 33.4736 42.9813 34.3371L42.9735 34.3448L36.9295 40.5094Z" fill="currentColor"/>
<path d="M36.128 41.1429L33.4668 38.7277V31.6433H34.5242V38.26L36.838 40.3604L36.128 41.1429Z" fill="currentColor"/>
<path d="M33.9951 32.0769C33.8593 32.0769 33.7258 32.0684 33.5938 32.0522H33.4664V32.0337C31.9421 31.7806 30.7751 30.4534 30.7751 28.8584C30.7751 27.0837 32.2192 25.6392 33.9951 25.6392C35.7703 25.6392 37.2151 27.0829 37.2151 28.8584H36.1577C36.1577 27.6662 35.1876 26.6963 33.9951 26.6963C32.8027 26.6963 31.8325 27.6662 31.8325 28.8584C31.8325 30.0506 32.8027 31.0205 33.9951 31.0205H34.5238V32.0522H33.9951V32.0769Z" fill="currentColor"/>
<path d="M31.5833 38.5665L31.121 39.0472L31.0808 39.0087C31.1711 38.8543 31.2074 38.7046 31.1904 38.5588C31.1727 38.413 31.1117 38.291 31.0083 38.1915C30.9218 38.1082 30.8176 38.0565 30.698 38.0372C30.5776 38.0171 30.4626 38.0318 30.3515 38.0804C30.2095 38.1421 30.0775 38.2362 29.9563 38.362C29.8375 38.4863 29.7441 38.6143 29.6777 38.7463C29.6113 38.8782 29.5858 39.0025 29.6028 39.119C29.6198 39.2355 29.6816 39.3443 29.7873 39.4469C29.8745 39.531 29.9733 39.5881 30.0821 39.6198C30.1917 39.6514 30.3314 39.6591 30.502 39.6429L30.387 39.7625C30.2311 39.7687 30.0937 39.7502 29.9741 39.7054C29.8552 39.6607 29.7387 39.5851 29.626 39.4763C29.4778 39.3343 29.3751 39.1784 29.3173 39.0087C29.2594 38.8389 29.2524 38.6684 29.2972 38.4971C29.3412 38.3258 29.4238 38.1776 29.5449 38.0518C29.6723 37.9199 29.8274 37.8273 30.0103 37.7748C30.194 37.7223 30.3754 37.72 30.556 37.7679C30.7366 37.8157 30.8933 37.9029 31.0253 38.0302C31.1225 38.1236 31.2059 38.244 31.2738 38.3906C31.3131 38.4755 31.3409 38.5264 31.3579 38.5426C31.3795 38.5634 31.4065 38.5734 31.4374 38.5727C31.469 38.5719 31.5038 38.5565 31.5416 38.5264L31.5833 38.5665Z" fill="currentColor"/>
<path d="M32.113 39.136L30.9708 40.3251C30.9059 40.393 30.872 40.4432 30.8697 40.4771C30.8673 40.5111 30.8882 40.5512 30.9314 40.5983L30.8959 40.6353L30.3788 40.1391L30.4143 40.1021C30.4575 40.1415 30.5007 40.1592 30.544 40.1553C30.5725 40.153 30.6196 40.1175 30.6844 40.0504L31.6361 39.0596C31.7001 38.9925 31.7333 38.9423 31.7356 38.9084C31.7379 38.8744 31.7179 38.8343 31.6754 38.7888L31.7117 38.751L32.113 39.136Z" fill="currentColor"/>
<path d="M32.3852 40.1706C32.4685 40.2509 32.5249 40.3465 32.5557 40.4584C32.5858 40.5703 32.582 40.6837 32.5426 40.7979C32.504 40.9129 32.4392 41.0171 32.3489 41.1112C32.2184 41.247 32.0749 41.3273 31.9182 41.3527C31.7284 41.3836 31.5609 41.328 31.4142 41.1876C31.2699 41.0495 31.2074 40.8921 31.2267 40.7169C31.246 40.541 31.3193 40.3867 31.4474 40.2539C31.5794 40.1166 31.7338 40.0356 31.9113 40.0101C32.0888 39.9839 32.247 40.0379 32.3852 40.1706ZM32.3196 40.247C32.2848 40.2138 32.2424 40.1976 32.1922 40.2007C32.142 40.203 32.0757 40.2393 31.9939 40.3087C31.9113 40.3789 31.804 40.4823 31.672 40.6205C31.6018 40.6938 31.5408 40.7663 31.4899 40.8388C31.4505 40.8944 31.4312 40.9469 31.432 40.9955C31.4328 41.0441 31.4482 41.0834 31.4798 41.1143C31.5107 41.1436 31.5439 41.1598 31.5809 41.1621C31.6296 41.1645 31.679 41.149 31.7276 41.1158C31.8032 41.0641 31.936 40.9399 32.1258 40.7424C32.237 40.6266 32.3072 40.5402 32.3358 40.4847C32.3643 40.4291 32.3759 40.3789 32.369 40.335C32.3643 40.3041 32.3481 40.2748 32.3196 40.247Z" fill="currentColor"/>
<path d="M32.4399 42.1726L32.8305 41.1208C32.8776 40.9943 32.9015 40.9086 32.9023 40.8631C32.9038 40.8299 32.8922 40.796 32.8675 40.7605L32.9038 40.7227L33.4124 41.2111L33.3761 41.2489C33.3437 41.218 33.3167 41.2026 33.2936 41.2034C33.2627 41.2026 33.2372 41.2126 33.2179 41.2327C33.194 41.2582 33.1631 41.3199 33.1261 41.4179L32.9385 41.9287L33.3622 41.7397C33.4834 41.6857 33.5621 41.6401 33.5976 41.6031C33.6177 41.5823 33.627 41.5576 33.6239 41.529C33.6216 41.5012 33.6007 41.4673 33.5637 41.4287L33.6 41.3909L33.9133 41.6918L33.877 41.7296C33.8431 41.7049 33.8076 41.6926 33.7705 41.6926C33.7335 41.6926 33.6532 41.7196 33.5282 41.7728L32.487 42.2173L32.4399 42.1726Z" fill="currentColor"/>
<path d="M34.3863 43.0011L33.8615 42.4973C33.7457 42.63 33.6832 42.7627 33.6739 42.8954C33.6662 42.9973 33.6963 43.0798 33.7619 43.1439C33.8028 43.1832 33.8507 43.2079 33.9062 43.2164C33.9618 43.2257 34.0374 43.2187 34.1324 43.1964L34.1455 43.2527C33.9919 43.3082 33.863 43.3283 33.758 43.3121C33.6531 43.2959 33.5589 43.2481 33.4763 43.1686C33.3343 43.032 33.2795 42.8746 33.3112 42.6948C33.3366 42.5505 33.4123 42.4132 33.5381 42.2828C33.6917 42.123 33.8568 42.0374 34.0336 42.0258C34.2111 42.0142 34.357 42.0644 34.4735 42.1755C34.5708 42.2689 34.6163 42.3892 34.6117 42.5374C34.6063 42.6855 34.5306 42.8399 34.3863 43.0011ZM34.2003 42.6909C34.306 42.5814 34.3724 42.5004 34.3994 42.4479C34.4264 42.3954 34.438 42.3468 34.4334 42.3013C34.4311 42.275 34.4179 42.2503 34.394 42.228C34.3585 42.194 34.313 42.1832 34.2566 42.1963C34.1578 42.2187 34.0583 42.2828 33.9564 42.3885L33.9224 42.424L34.2003 42.6909Z" fill="currentColor"/>
<path d="M35.3305 43.0534L35.1221 43.2703C35.2803 43.2325 35.3992 43.2201 35.4779 43.2332C35.5566 43.2463 35.6183 43.2749 35.6631 43.3173C35.7017 43.3544 35.7202 43.3953 35.721 43.4408C35.721 43.4863 35.7009 43.5303 35.6592 43.5735C35.6153 43.619 35.5697 43.6437 35.5234 43.6484C35.4771 43.6522 35.4377 43.6391 35.4069 43.609C35.3706 43.5743 35.3505 43.5326 35.3459 43.484C35.3413 43.4354 35.3382 43.4076 35.3359 43.3999C35.3328 43.3891 35.3274 43.3798 35.3181 43.3714C35.298 43.3521 35.2726 43.342 35.2402 43.3397C35.19 43.3359 35.1375 43.349 35.0812 43.3783C34.9955 43.4231 34.9145 43.4863 34.838 43.5658L34.6266 43.7857L34.5725 43.8436C34.5355 43.8822 34.5139 43.91 34.5077 43.9254C34.4985 43.9516 34.4977 43.9771 34.5054 44.001C34.5131 44.0249 34.5355 44.0566 34.5718 44.0951L34.5363 44.1322L34.0192 43.636L34.0547 43.599C34.0994 43.6352 34.1388 43.6515 34.172 43.6461C34.2052 43.6407 34.2623 43.5967 34.3418 43.5133L34.8496 42.984C34.9021 42.9292 34.933 42.8922 34.9415 42.8713C34.953 42.8459 34.9561 42.822 34.9523 42.8011C34.9476 42.7795 34.9307 42.7517 34.9013 42.717L34.9376 42.6792L35.3305 43.0534Z" fill="currentColor"/>
<path d="M36.494 44.1199L36.1961 44.4609L36.1613 44.427C36.213 44.2904 36.2331 44.1824 36.2223 44.1045C36.2115 44.0265 36.1845 43.9656 36.1397 43.9231C36.1119 43.8961 36.0788 43.883 36.0409 43.8822C36.0031 43.8822 35.9722 43.8946 35.9491 43.9185C35.9313 43.937 35.9213 43.9609 35.9182 43.991C35.9136 44.0396 35.9283 44.1469 35.963 44.3105C35.9977 44.4748 36.0085 44.596 35.9946 44.6739C35.9807 44.7519 35.946 44.8198 35.8897 44.8784C35.8387 44.9316 35.7754 44.971 35.699 44.9965C35.6234 45.0219 35.5478 45.025 35.4737 45.0065C35.3988 44.9872 35.3324 44.9494 35.2738 44.8931C35.2282 44.8491 35.1804 44.7758 35.1317 44.6739C35.1186 44.6469 35.1078 44.6299 35.1001 44.6222C35.0777 44.6006 35.0422 44.5998 34.9951 44.6191L34.9612 44.5867L35.2753 44.2271L35.31 44.2603C35.2545 44.3799 35.2313 44.488 35.2421 44.5844C35.2522 44.6809 35.2815 44.7519 35.3293 44.7982C35.3617 44.8298 35.3988 44.8452 35.4389 44.8452C35.4791 44.8452 35.513 44.8306 35.5408 44.802C35.5725 44.7696 35.5894 44.731 35.5917 44.6878C35.5941 44.6446 35.5833 44.5643 35.5586 44.4478C35.5238 44.275 35.5092 44.1554 35.5153 44.0875C35.5238 43.9879 35.5609 43.9046 35.6257 43.8375C35.6967 43.7642 35.7862 43.7217 35.8943 43.7109C36.0023 43.7001 36.105 43.741 36.2007 43.8328C36.2524 43.883 36.2902 43.9432 36.3149 44.0149C36.3234 44.0427 36.3334 44.0628 36.345 44.0736C36.3574 44.0852 36.3697 44.0921 36.3821 44.0944C36.3944 44.0967 36.4207 44.0937 36.46 44.0852L36.494 44.1199Z" fill="currentColor"/>
<path d="M37.0632 45.5712L36.5383 45.0674C36.4226 45.2001 36.3601 45.3328 36.3508 45.4655C36.3439 45.5674 36.3732 45.65 36.4388 45.7132C36.4797 45.7526 36.5275 45.7765 36.5831 45.7858C36.6387 45.795 36.7143 45.7881 36.8093 45.7657L36.8224 45.822C36.6688 45.8776 36.5399 45.8976 36.4349 45.8814C36.33 45.8652 36.2358 45.8174 36.1532 45.7379C36.0112 45.6013 35.9564 45.4439 35.9881 45.2641C36.0135 45.1198 36.0892 44.9825 36.215 44.8521C36.3686 44.6924 36.5337 44.6067 36.7105 44.5951C36.888 44.5836 37.0338 44.6337 37.1504 44.7448C37.2476 44.8374 37.2932 44.9586 37.2885 45.106C37.2831 45.2549 37.2083 45.41 37.0632 45.5712ZM36.8772 45.2611C36.9829 45.1515 37.0493 45.0697 37.0771 45.018C37.1041 44.9655 37.1157 44.9169 37.1103 44.8714C37.1079 44.8451 37.0948 44.8212 37.0709 44.7981C37.0354 44.7641 36.9899 44.7533 36.9335 44.7664C36.8347 44.7888 36.7344 44.8521 36.6333 44.9578L36.5985 44.9933L36.8772 45.2611Z" fill="currentColor"/>
<path d="M56 39.8911C56 38.6236 56.1932 37.4419 56.5814 36.3477C56.9695 35.274 57.5106 34.329 58.2281 33.5126C58.9254 32.7391 59.7571 32.1165 60.7636 31.6655C61.7516 31.2367 62.8556 31 64.0553 31C66.9404 31 69.2642 32.3961 71.0252 35.1454L69.0693 36.8416C68.5652 35.8537 67.8881 35.0596 67.0177 34.4576C66.1271 33.8985 65.1593 33.5984 64.094 33.5984C63.358 33.5984 62.6808 33.7699 62.0608 34.0923C61.4408 34.4354 60.8997 34.8864 60.4729 35.4455C60.0075 36.0252 59.6597 36.6907 59.4278 37.4436C59.1758 38.2172 59.0598 39.0335 59.0598 39.8928C59.0598 40.795 59.1758 41.6113 59.448 42.3626C59.7 43.1361 60.068 43.8015 60.5519 44.3606C61.0174 44.9404 61.5971 45.3914 62.2557 45.6916C62.9144 46.014 63.6504 46.1855 64.4636 46.1855C64.9677 46.1855 65.4315 46.0998 65.8969 45.9283C66.3422 45.7567 66.7673 45.5201 67.1756 45.2199C67.5621 44.9198 67.9116 44.575 68.2594 44.1463C68.5888 43.7604 68.8795 43.3093 69.15 42.8359L71.0857 44.6402C70.2338 45.9934 69.2273 47.0242 68.1032 47.7325C66.9606 48.4203 65.6062 48.7856 64.057 48.7856C62.9144 48.7856 61.8491 48.5712 60.8813 48.163C59.8932 47.7343 59.0413 47.1528 58.3255 46.381C57.5896 45.6075 57.0283 44.6848 56.6217 43.5666C56.1932 42.4912 56 41.2666 56 39.8911Z" fill="currentColor"/>
<path d="M76.0005 31.4512V48.3552H72.9424V31.4512H76.0005Z" fill="currentColor"/>
<path d="M78.032 42.1258C78.032 41.0727 78.2067 40.1071 78.5546 39.2479C78.9024 38.3886 79.3678 37.658 79.9878 37.0577C80.5692 36.4557 81.2665 36.0046 82.0781 35.6616C82.8712 35.3615 83.7248 35.1882 84.6339 35.1882C85.5244 35.1882 86.3578 35.3597 87.1711 35.6616C87.9642 36.0046 88.6615 36.4557 89.2815 37.0577C89.8629 37.6597 90.3469 38.3886 90.7148 39.2479C91.0627 40.1071 91.2374 41.0745 91.2374 42.1258C91.2374 43.1995 91.0627 44.1445 90.7148 44.9832C90.3469 45.8424 89.8629 46.5508 89.2815 47.1528C88.6615 47.7325 87.9659 48.1836 87.1711 48.5266C86.3578 48.8267 85.5244 49 84.6339 49C83.7231 49 82.8712 48.8284 82.0781 48.5266C81.2649 48.1836 80.5675 47.7325 79.9878 47.1528C79.3678 46.5508 78.9041 45.8424 78.5546 44.9832C78.2067 44.1445 78.032 43.1995 78.032 42.1258ZM84.6355 46.3999C85.1396 46.3999 85.6034 46.2918 86.0487 46.0997C86.4755 45.8853 86.8619 45.5835 87.1913 45.1976C87.5004 44.8323 87.734 44.3812 87.9272 43.8444C88.102 43.3281 88.1978 42.7707 88.1978 42.1258C88.1978 41.4809 88.1003 40.9012 87.9272 40.3438C87.734 39.8276 87.5004 39.3765 87.1913 38.9906C86.8619 38.6253 86.4755 38.3252 86.0487 38.1108C85.6034 37.917 85.138 37.8106 84.6355 37.8106C84.113 37.8106 83.6475 37.9187 83.2224 38.1331C82.7771 38.3475 82.4091 38.6493 82.1 39.0146C81.7706 39.4005 81.5186 39.8739 81.3455 40.3901C81.1523 40.927 81.075 41.5067 81.075 42.1293C81.075 42.7741 81.1523 43.3315 81.3455 43.8478C81.5203 44.3846 81.7723 44.8357 82.1 45.201C82.4091 45.5869 82.7771 45.8888 83.2224 46.1031C83.6475 46.2918 84.1113 46.3999 84.6355 46.3999Z" fill="currentColor"/>
<path d="M99.4843 48.3552H96.3859L91.6038 35.8333H94.7207L97.9351 44.4036L101.149 35.8333H104.266L99.4843 48.3552Z" fill="currentColor"/>
<path d="M107.945 44.2303C108.215 44.9181 108.622 45.4549 109.183 45.8202C109.726 46.1855 110.421 46.3793 111.255 46.3793C112.029 46.3793 112.727 46.2284 113.385 45.9506C114.005 45.671 114.585 45.1771 115.109 44.4893L117.065 46.1427C116.388 47.0448 115.575 47.7326 114.646 48.2471C113.696 48.741 112.671 48.9983 111.567 48.9983C110.599 48.9983 109.709 48.8268 108.896 48.5249C108.062 48.1819 107.346 47.7308 106.747 47.1511C106.127 46.5491 105.643 45.8202 105.295 44.961C104.927 44.124 104.752 43.179 104.752 42.1036C104.752 41.0728 104.907 40.1278 105.256 39.2685C105.586 38.4316 106.049 37.7009 106.631 37.0783C107.212 36.4763 107.889 36.0047 108.702 35.6617C109.477 35.3392 110.347 35.1677 111.277 35.1677C112.167 35.1677 113.001 35.3392 113.774 35.6617C114.51 36.0047 115.168 36.4558 115.729 37.0149C116.272 37.6169 116.717 38.3029 117.065 39.0987C117.374 39.9151 117.569 40.8173 117.608 41.7623L107.945 44.2303ZM111.411 37.7867C110.25 37.7867 109.359 38.152 108.701 38.8398C108.024 39.5704 107.656 40.536 107.597 41.74L114.567 39.8928C114.219 39.1622 113.792 38.6254 113.249 38.2824C112.708 37.9582 112.088 37.7867 111.411 37.7867Z" fill="currentColor"/>
<path d="M122.6 37.2276C122.871 36.7971 123.239 36.4541 123.723 36.1969C124.188 35.9602 124.749 35.8315 125.406 35.8315H127.807L127.323 38.4522H124.904C124.595 38.4522 124.322 38.538 124.07 38.6889C123.8 38.8604 123.566 39.0971 123.373 39.3544C123.16 39.6545 123.005 39.9769 122.889 40.3217C122.773 40.687 122.714 41.0523 122.714 41.4382V48.3552H119.655V35.8333H122.326L122.6 37.2276Z" fill="currentColor"/>
<path d="M137.276 39.0112C136.772 38.6253 136.249 38.3234 135.669 38.1091C135.07 37.9152 134.527 37.8089 134.043 37.8089C132.746 37.8089 132.107 38.2394 132.107 39.0541C132.107 39.3971 132.205 39.6767 132.437 39.891C132.65 40.1483 133.075 40.3421 133.695 40.493C135.399 40.9441 136.657 41.5238 137.471 42.2116C138.264 42.9199 138.67 43.8221 138.67 44.918C138.67 45.6058 138.554 46.2061 138.323 46.7223C138.071 47.2385 137.741 47.6673 137.316 48.0103C136.891 48.3328 136.367 48.59 135.787 48.7616C135.167 48.9125 134.508 48.9982 133.774 48.9982C132.768 48.9982 131.857 48.8473 131.044 48.5472C130.212 48.2247 129.437 47.796 128.72 47.2368L129.824 44.8528C130.308 45.3245 130.85 45.6898 131.47 45.9488C132.07 46.2061 132.729 46.357 133.426 46.357C134.258 46.357 134.839 46.2489 135.15 46.0345C135.459 45.8202 135.616 45.4754 135.616 44.9609C135.616 44.5304 135.441 44.1874 135.093 43.9078C134.725 43.6505 134.203 43.4139 133.544 43.1995C132.731 42.9628 132.033 42.7055 131.472 42.4483C130.891 42.191 130.445 41.9114 130.098 41.5667C129.73 41.2666 129.459 40.8789 129.304 40.4502C129.13 40.042 129.052 39.548 129.052 38.9683C129.052 38.4092 129.15 37.8724 129.382 37.4007C129.595 36.9496 129.904 36.5637 130.331 36.219C130.719 35.8966 131.203 35.6393 131.783 35.4455C132.344 35.274 132.983 35.1882 133.68 35.1882C134.221 35.1882 134.707 35.2311 135.152 35.2963C135.577 35.382 135.965 35.5107 136.352 35.6393C136.699 35.7902 137.049 35.9617 137.358 36.1333L138.249 36.7781L137.276 39.0112Z" fill="currentColor"/>
<path d="M143.337 44.2303C143.607 44.9181 144.014 45.4549 144.575 45.8202C145.118 46.1855 145.813 46.3793 146.647 46.3793C147.421 46.3793 148.119 46.2284 148.777 45.9506C149.397 45.671 149.977 45.1771 150.501 44.4893L152.457 46.1427C151.78 47.0448 150.967 47.7326 150.038 48.2471C149.088 48.741 148.063 48.9983 146.959 48.9983C145.991 48.9983 145.101 48.8268 144.288 48.5249C143.454 48.1819 142.738 47.7308 142.139 47.1511C141.519 46.5491 141.035 45.8202 140.687 44.961C140.319 44.124 140.144 43.179 140.144 42.1036C140.144 41.0728 140.299 40.1278 140.648 39.2685C140.977 38.4316 141.441 37.7009 142.023 37.0783C142.604 36.4763 143.281 36.0047 144.094 35.6617C144.869 35.3392 145.739 35.1677 146.669 35.1677C147.559 35.1677 148.393 35.3392 149.166 35.6617C149.902 36.0047 150.56 36.4558 151.121 37.0149C151.664 37.6169 152.109 38.3029 152.457 39.0987C152.766 39.9151 152.961 40.8173 153 41.7623L143.337 44.2303ZM146.801 37.7867C145.64 37.7867 144.75 38.152 144.091 38.8398C143.414 39.5704 143.046 40.536 142.987 41.74L149.957 39.8928C149.609 39.1622 149.182 38.6254 148.64 38.2824C148.099 37.9582 147.479 37.7867 146.801 37.7867Z" fill="currentColor"/>
</svg>
